name analog
datacolumns 19
datarows 23
range 0.5325 0.5435
endheader
time	ground_force_vx	ground_force_vy	ground_force_vz	ground_force_px	ground_force_py	ground_force_pz	l_ground_force_vx	l_ground_force_vy	l_ground_force_vz	l_ground_force_px	l_ground_force_py	l_ground_force_pz	ground_torque_x	ground_torque_y	ground_torque_z	l_ground_torque_x	l_ground_torque_y	l_ground_torque_z
0.5325	-0.0	-0.0	-0.0	-0.0	-0.0	-0.0	9.519775390625	-4.620326995849609	-470.925537109375	-0.0	-0.0	-0.0	-0.0	-0.0	-0.0	136682.0	20227.03515625	1449.865234375
0.533	-0.0	-0.0	-0.0	-0.0	-0.0	-0.0	10.181333541870115	-4.33481502532959	-471.703857421875	-0.0	-0.0	-0.0	-0.0	-0.0	-0.0	137179.84375	20072.17578125	1617.1904296875
0.5335	-0.0	-0.0	-0.0	-0.0	-0.0	-0.0	10.249534606933594	-4.51125431060791	-472.9123229980469	-0.0	-0.0	-0.0	-0.0	-0.0	-0.0	137434.21875	19418.333984375	1614.8427734375
0.534	-0.0	-0.0	-0.0	-0.0	-0.0	-0.0	10.072011947631836	-4.151119232177734	-473.8531799316406	-0.0	-0.0	-0.0	-0.0	-0.0	-0.0	138176.8125	19176.06640625	1610.198974609375
0.5345	-0.0	-0.0	-0.0	-0.0	-0.0	-0.0	9.43814754486084	-3.335728406906128	-476.6980285644531	-0.0	-0.0	-0.0	-0.0	-0.0	-0.0	138479.25	19128.240234375	1409.087890625
0.535	-0.0	-0.0	-0.0	-0.0	-0.0	-0.0	8.761720657348633	-2.8262939453125	-475.5204162597656	-0.0	-0.0	-0.0	-0.0	-0.0	-0.0	139359.28125	19278.5546875	1335.538330078125
0.5355	-0.0	-0.0	-0.0	-0.0	-0.0	-0.0	8.406800270080566	-2.7850277423858643	-478.93157958984375	-0.0	-0.0	-0.0	-0.0	-0.0	-0.0	140024.03125	19219.02734375	1232.31591796875
0.536	-0.0	-0.0	-0.0	-0.0	-0.0	-0.0	7.498866081237793	-2.561328887939453	-479.8161010742188	-0.0	-0.0	-0.0	-0.0	-0.0	-0.0	140155.546875	19295.232421875	974.7730712890624
0.5365	-0.0	-0.0	-0.0	-0.0	-0.0	-0.0	7.702343463897705	-2.7225453853607178	-480.9247741699219	-0.0	-0.0	-0.0	-0.0	-0.0	-0.0	140810.046875	19303.34765625	1044.8155517578125
0.537	-0.0	-0.0	-0.0	-0.0	-0.0	-0.0	7.811587810516357	-2.238901376724243	-481.56243896484375	-0.0	-0.0	-0.0	-0.0	-0.0	-0.0	141117.703125	19494.28125	1088.5667724609375
0.5375	-0.0	-0.0	-0.0	-0.0	-0.0	-0.0	7.983970642089844	-1.9383232593536377	-482.9592895507813	-0.0	-0.0	-0.0	-0.0	-0.0	-0.0	141831.71875	19384.431640625	1186.3272705078125
0.538	-0.0	-0.0	-0.0	-0.0	-0.0	-0.0	7.80207633972168	-1.3248252868652344	-484.7229614257813	-0.0	-0.0	-0.0	-0.0	-0.0	-0.0	142106.46875	19535.43359375	1207.3538818359375
0.5385	-0.0	-0.0	-0.0	-0.0	-0.0	-0.0	7.650263786315918	-0.8832168579101562	-485.9194946289063	-0.0	-0.0	-0.0	-0.0	-0.0	-0.0	143164.25	19673.984375	1191.778076171875
0.539	-0.0	-0.0	-0.0	-0.0	-0.0	-0.0	7.046712398529053	-0.6566430330276489	-486.869140625	-0.0	-0.0	-0.0	-0.0	-0.0	-0.0	143520.671875	19624.162109375	1170.1273193359375
0.5395	-0.0	-0.0	-0.0	-0.0	-0.0	-0.0	6.784597396850586	-0.6394472122192383	-490.7536010742188	-0.0	-0.0	-0.0	-0.0	-0.0	-0.0	144254.234375	19564.009765625	1021.5477905273438
0.54	-0.0	-0.0	-0.0	-0.0	-0.0	-0.0	5.610119819641113	-0.7557361721992493	-490.82318115234375	-0.0	-0.0	-0.0	-0.0	-0.0	-0.0	144706.84375	19850.416015625	817.8790893554688
0.5405	-0.0	-0.0	-0.0	-0.0	-0.0	-0.0	5.188007831573486	-0.4629058241844177	-492.1353759765625	-0.0	-0.0	-0.0	-0.0	-0.0	-0.0	145167.125	19801.384765625	617.260009765625
0.541	-0.0	-0.0	-0.0	-0.0	-0.0	-0.0	4.741769790649414	-0.706573486328125	-493.2779235839844	-0.0	-0.0	-0.0	-0.0	-0.0	-0.0	145295.4375	19832.95703125	596.4736938476562
0.5415	-0.0	-0.0	-0.0	-0.0	-0.0	-0.0	4.325294494628906	-1.4825928211212158	-493.0020751953125	-0.0	-0.0	-0.0	-0.0	-0.0	-0.0	145570.375	19605.279296875	432.3976440429688
0.542	-0.0	-0.0	-0.0	-0.0	-0.0	-0.0	4.4810309410095215	-1.6803746223449707	-493.6153259277344	-0.0	-0.0	-0.0	-0.0	-0.0	-0.0	145631.78125	19497.654296875	396.3785400390625
0.5425	-0.0	-0.0	-0.0	-0.0	-0.0	-0.0	4.214744567871094	-1.9214857816696167	-493.4366149902344	-0.0	-0.0	-0.0	-0.0	-0.0	-0.0	145529.125	19584.95703125	380.8902587890625
0.543	-0.0	-0.0	-0.0	-0.0	-0.0	-0.0	3.9267284870147705	-2.429693460464477	-493.4435424804688	-0.0	-0.0	-0.0	-0.0	-0.0	-0.0	146070.578125	19568.947265625	201.412109375
0.5435	-0.0	-0.0	-0.0	-0.0	-0.0	-0.0	3.436497449874878	-2.8262939453125	-493.963623046875	-0.0	-0.0	-0.0	-0.0	-0.0	-0.0	145943.375	19716.384765625	45.98917007446289
